<svg xmlns="http://www.w3.org/2000/svg" width="1280" height="360" viewBox="0 0 1280 360" role="img" aria-label="SHIELD-DNS: Bloqueador de anuncios y rastreadores para toda tu casa">
  <defs>
    <linearGradient id="fondo" x1="0" y1="0" x2="1" y2="1"><stop offset="0" stop-color="#f7faff"/><stop offset="1" stop-color="#e6eefb"/></linearGradient>
    <linearGradient id="acento" x1="0" y1="0" x2="1" y2="1"><stop offset="0" stop-color="#34d399"/><stop offset="1" stop-color="#38d6ff"/></linearGradient>
    <radialGradient id="brillo" cx=".15" cy=".2" r=".6"><stop offset="0" stop-color="#34d399" stop-opacity=".22"/><stop offset="1" stop-color="#34d399" stop-opacity="0"/></radialGradient>
    <radialGradient id="brillo2" cx=".9" cy=".9" r=".5"><stop offset="0" stop-color="#38d6ff" stop-opacity=".18"/><stop offset="1" stop-color="#38d6ff" stop-opacity="0"/></radialGradient>
  </defs>
  <rect width="1280" height="360" rx="24" fill="url(#fondo)"/>
  <rect width="1280" height="360" rx="24" fill="url(#brillo)"/>
  <rect width="1280" height="360" rx="24" fill="url(#brillo2)"/>
  <g fill="#d3deee"><circle cx="1040" cy="20" r="1.6"/><circle cx="1040" cy="46" r="1.6"/><circle cx="1040" cy="72" r="1.6"/><circle cx="1040" cy="98" r="1.6"/><circle cx="1040" cy="124" r="1.6"/><circle cx="1040" cy="150" r="1.6"/><circle cx="1040" cy="176" r="1.6"/><circle cx="1040" cy="202" r="1.6"/><circle cx="1040" cy="228" r="1.6"/><circle cx="1040" cy="254" r="1.6"/><circle cx="1040" cy="280" r="1.6"/><circle cx="1040" cy="306" r="1.6"/><circle cx="1040" cy="332" r="1.6"/><circle cx="1066" cy="20" r="1.6"/><circle cx="1066" cy="46" r="1.6"/><circle cx="1066" cy="72" r="1.6"/><circle cx="1066" cy="98" r="1.6"/><circle cx="1066" cy="124" r="1.6"/><circle cx="1066" cy="150" r="1.6"/><circle cx="1066" cy="176" r="1.6"/><circle cx="1066" cy="202" r="1.6"/><circle cx="1066" cy="228" r="1.6"/><circle cx="1066" cy="254" r="1.6"/><circle cx="1066" cy="280" r="1.6"/><circle cx="1066" cy="306" r="1.6"/><circle cx="1066" cy="332" r="1.6"/><circle cx="1092" cy="20" r="1.6"/><circle cx="1092" cy="46" r="1.6"/><circle cx="1092" cy="72" r="1.6"/><circle cx="1092" cy="98" r="1.6"/><circle cx="1092" cy="124" r="1.6"/><circle cx="1092" cy="150" r="1.6"/><circle cx="1092" cy="176" r="1.6"/><circle cx="1092" cy="202" r="1.6"/><circle cx="1092" cy="228" r="1.6"/><circle cx="1092" cy="254" r="1.6"/><circle cx="1092" cy="280" r="1.6"/><circle cx="1092" cy="306" r="1.6"/><circle cx="1092" cy="332" r="1.6"/><circle cx="1118" cy="20" r="1.6"/><circle cx="1118" cy="46" r="1.6"/><circle cx="1118" cy="72" r="1.6"/><circle cx="1118" cy="98" r="1.6"/><circle cx="1118" cy="124" r="1.6"/><circle cx="1118" cy="150" r="1.6"/><circle cx="1118" cy="176" r="1.6"/><circle cx="1118" cy="202" r="1.6"/><circle cx="1118" cy="228" r="1.6"/><circle cx="1118" cy="254" r="1.6"/><circle cx="1118" cy="280" r="1.6"/><circle cx="1118" cy="306" r="1.6"/><circle cx="1118" cy="332" r="1.6"/><circle cx="1144" cy="20" r="1.6"/><circle cx="1144" cy="46" r="1.6"/><circle cx="1144" cy="72" r="1.6"/><circle cx="1144" cy="98" r="1.6"/><circle cx="1144" cy="124" r="1.6"/><circle cx="1144" cy="150" r="1.6"/><circle cx="1144" cy="176" r="1.6"/><circle cx="1144" cy="202" r="1.6"/><circle cx="1144" cy="228" r="1.6"/><circle cx="1144" cy="254" r="1.6"/><circle cx="1144" cy="280" r="1.6"/><circle cx="1144" cy="306" r="1.6"/><circle cx="1144" cy="332" r="1.6"/><circle cx="1170" cy="20" r="1.6"/><circle cx="1170" cy="46" r="1.6"/><circle cx="1170" cy="72" r="1.6"/><circle cx="1170" cy="98" r="1.6"/><circle cx="1170" cy="124" r="1.6"/><circle cx="1170" cy="150" r="1.6"/><circle cx="1170" cy="176" r="1.6"/><circle cx="1170" cy="202" r="1.6"/><circle cx="1170" cy="228" r="1.6"/><circle cx="1170" cy="254" r="1.6"/><circle cx="1170" cy="280" r="1.6"/><circle cx="1170" cy="306" r="1.6"/><circle cx="1170" cy="332" r="1.6"/><circle cx="1196" cy="20" r="1.6"/><circle cx="1196" cy="46" r="1.6"/><circle cx="1196" cy="72" r="1.6"/><circle cx="1196" cy="98" r="1.6"/><circle cx="1196" cy="124" r="1.6"/><circle cx="1196" cy="150" r="1.6"/><circle cx="1196" cy="176" r="1.6"/><circle cx="1196" cy="202" r="1.6"/><circle cx="1196" cy="228" r="1.6"/><circle cx="1196" cy="254" r="1.6"/><circle cx="1196" cy="280" r="1.6"/><circle cx="1196" cy="306" r="1.6"/><circle cx="1196" cy="332" r="1.6"/><circle cx="1222" cy="20" r="1.6"/><circle cx="1222" cy="46" r="1.6"/><circle cx="1222" cy="72" r="1.6"/><circle cx="1222" cy="98" r="1.6"/><circle cx="1222" cy="124" r="1.6"/><circle cx="1222" cy="150" r="1.6"/><circle cx="1222" cy="176" r="1.6"/><circle cx="1222" cy="202" r="1.6"/><circle cx="1222" cy="228" r="1.6"/><circle cx="1222" cy="254" r="1.6"/><circle cx="1222" cy="280" r="1.6"/><circle cx="1222" cy="306" r="1.6"/><circle cx="1222" cy="332" r="1.6"/><circle cx="1248" cy="20" r="1.6"/><circle cx="1248" cy="46" r="1.6"/><circle cx="1248" cy="72" r="1.6"/><circle cx="1248" cy="98" r="1.6"/><circle cx="1248" cy="124" r="1.6"/><circle cx="1248" cy="150" r="1.6"/><circle cx="1248" cy="176" r="1.6"/><circle cx="1248" cy="202" r="1.6"/><circle cx="1248" cy="228" r="1.6"/><circle cx="1248" cy="254" r="1.6"/><circle cx="1248" cy="280" r="1.6"/><circle cx="1248" cy="306" r="1.6"/><circle cx="1248" cy="332" r="1.6"/></g>
  <g stroke="url(#acento)" stroke-width="2" opacity=".45"><line x1="1120" y1="92" x2="1218" y2="58"/><line x1="1218" y1="58" x2="1246" y2="160"/><line x1="1246" y1="160" x2="1160" y2="206"/><line x1="1160" y1="206" x2="1120" y2="92"/><line x1="1160" y1="206" x2="1226" y2="292"/><line x1="1226" y1="292" x2="1246" y2="160"/><line x1="1160" y1="206" x2="1096" y2="286"/><line x1="1096" y1="286" x2="1120" y2="92"/></g>
  <g fill="url(#acento)" opacity=".85"><circle cx="1120" cy="92" r="7"/><circle cx="1218" cy="58" r="7"/><circle cx="1246" cy="160" r="7"/><circle cx="1160" cy="206" r="12"/><circle cx="1226" cy="292" r="7"/><circle cx="1096" cy="286" r="7"/></g>
  <g transform="translate(150 180)">
      <path d="M0 -62 L50 -42 V2 C50 34 28 54 0 64 C-28 54 -50 34 -50 2 V-42 Z" fill="url(#acento)"/>
      <path d="M-22 2 L-6 18 L24 -14" fill="none" stroke="#f7faff" stroke-width="11" stroke-linecap="round" stroke-linejoin="round"/>
      <path d="M72 -30 l26 0 M72 -10 l38 0 M72 10 l20 0" stroke="url(#acento)" stroke-width="7" stroke-linecap="round" opacity=".55"/>
      <path d="M68 30 l40 0" stroke="#fb5d6a" stroke-width="7" stroke-linecap="round" opacity=".8"/>
  </g>
  <g font-family="system-ui, -apple-system, 'Segoe UI', Roboto, 'Helvetica Neue', Arial, sans-serif">
    <text x="300" y="148" font-size="78" font-weight="800" letter-spacing="2" fill="#0b1424">SHIELD-DNS</text>
    <rect x="302" y="166" width="120" height="6" rx="3" fill="url(#acento)"/>
    <text x="300" y="214" font-size="22" font-weight="500" fill="#4a5d7a">Bloqueador de anuncios y rastreadores para toda tu casa</text>
    <g transform="translate(300 252)"><rect width="127" height="34" rx="17" fill="#ffffff" stroke="#c9d6ea"/><text x="63.5" y="22.5" text-anchor="middle" font-size="15" font-weight="600" fill="#0b1424">Pi-hole v6</text></g><g transform="translate(437 252)"><rect width="182" height="34" rx="17" fill="#ffffff" stroke="#c9d6ea"/><text x="91.0" y="22.5" text-anchor="middle" font-size="15" font-weight="600" fill="#0b1424">Unbound + DNSSEC</text></g><g transform="translate(629 252)"><rect width="145" height="34" rx="17" fill="#ffffff" stroke="#c9d6ea"/><text x="72.5" y="22.5" text-anchor="middle" font-size="15" font-weight="600" fill="#0b1424">Anti-malware</text></g><g transform="translate(784 252)"><rect width="192" height="34" rx="17" fill="#ffffff" stroke="#c9d6ea"/><text x="96.0" y="22.5" text-anchor="middle" font-size="15" font-weight="600" fill="#0b1424">Sin instalar nada</text></g>
    <text x="628" y="319" font-size="14" fill="#4a5d7a">· 100 % autoalojado · gratis</text>
    <circle cx="305" cy="314" r="5" fill="#38d6ff" opacity="0.55"/><text x="316" y="319" font-size="14" font-weight="500" fill="#4a5d7a">ARIA</text><circle cx="383" cy="314" r="5" fill="#34d399" opacity="1"/><text x="394" y="319" font-size="14" font-weight="700" fill="#0b1424">SHIELD-DNS</text><circle cx="515" cy="314" r="5" fill="#f5b84b" opacity="0.55"/><text x="526" y="319" font-size="14" font-weight="500" fill="#4a5d7a">HEIMDALL</text>
  </g>
</svg>
